<?xml version="1.0" encoding="utf-8"?>
<!-- Generator: Adobe Illustrator 24.2.3, SVG Export Plug-In . SVG Version: 6.00 Build 0)  -->
<svg version="1.1" id="mari_mountain" xmlns="http://www.w3.org/2000/svg" xmlns:xlink="http://www.w3.org/1999/xlink" x="0px"
	 y="0px" viewBox="0 0 512 512" style="enable-background:new 0 0 512 512;" xml:space="preserve">
<style type="text/css">
	.st0{fill:none;}
	.st1{fill:#000000;}
	.st2{fill:#000000;}
	.st3{fill:#000000;}
	.st4{fill:#000000;}
	.st5{fill:#000000;}
	.st6{fill:#000000;}
</style>
<g>
	<g>
		<rect x="0.3" y="-0.2" class="st0" width="512" height="512"/>
	</g>
	<path class="st1" d="M79.16,424.6L0,345.44l79.16-79.16c1.37-1.37,3.59-1.37,4.96,0l79.16,79.16L84.12,424.6
		C82.75,425.97,80.53,425.97,79.16,424.6z"/>
	<path class="st2" d="M253.53,424.61l-78.96-78.96c-0.11-0.11-0.11-0.29,0-0.41l78.96-78.96c1.37-1.37,3.58-1.37,4.95,0l78.96,78.96
		c0.11,0.11,0.11,0.29,0,0.41l-78.96,78.96C257.11,425.97,254.89,425.97,253.53,424.61z"/>
	<path class="st3" d="M427.89,424.6l-79.16-79.16l79.16-79.16c1.37-1.37,3.59-1.37,4.95,0L512,345.44l-79.16,79.16
		C431.47,425.97,429.25,425.97,427.89,424.6z"/>
	<path class="st4" d="M166.57,335.16L87.41,256l79.16-79.16c1.37-1.37,3.58-1.37,4.95,0L250.68,256l-79.16,79.16
		C170.15,336.53,167.93,336.53,166.57,335.16z"/>
	<path class="st5" d="M340.93,335.16L261.77,256l79.16-79.16c1.37-1.37,3.59-1.37,4.95,0L425.04,256l-79.16,79.16
		C344.51,336.53,342.3,336.53,340.93,335.16z"/>
	<path class="st6" d="M253.98,245.72l-78.41-78.41c-0.42-0.42-0.42-1.1,0-1.51l78.41-78.41c1.37-1.37,3.58-1.37,4.95,0l78.41,78.41
		c0.42,0.42,0.42,1.1,0,1.51l-78.41,78.41C257.56,247.09,255.34,247.09,253.98,245.72z"/>
</g>
</svg>
